<?xml version="1.0" encoding="UTF-8" ?>
<svg version="1.1" width="150" height="150" xmlns="http://www.w3.org/2000/svg" shape-rendering="crispEdges">
<rect x="60" y="19" width="1" height="1" fill="#B95866" />
<rect x="61" y="19" width="1" height="1" fill="#B95866" />
<rect x="62" y="19" width="1" height="1" fill="#B95866" />
<rect x="57" y="20" width="1" height="1" fill="#B95866" />
<rect x="58" y="20" width="1" height="1" fill="#B95866" />
<rect x="59" y="20" width="1" height="1" fill="#B95866" />
<rect x="60" y="20" width="1" height="1" fill="#B95866" />
<rect x="61" y="20" width="1" height="1" fill="#B95866" />
<rect x="62" y="20" width="1" height="1" fill="#B95866" />
<rect x="63" y="20" width="1" height="1" fill="#B95866" />
<rect x="64" y="20" width="1" height="1" fill="#B95866" />
<rect x="65" y="20" width="1" height="1" fill="#B95866" />
<rect x="56" y="21" width="1" height="1" fill="#B95866" />
<rect x="57" y="21" width="1" height="1" fill="#B95866" />
<rect x="58" y="21" width="1" height="1" fill="#B95866" />
<rect x="59" y="21" width="1" height="1" fill="#B95866" />
<rect x="60" y="21" width="1" height="1" fill="#B95866" />
<rect x="61" y="21" width="1" height="1" fill="#B95866" />
<rect x="62" y="21" width="1" height="1" fill="#B95866" />
<rect x="63" y="21" width="1" height="1" fill="#B95866" />
<rect x="64" y="21" width="1" height="1" fill="#B95866" />
<rect x="65" y="21" width="1" height="1" fill="#B95866" />
<rect x="55" y="22" width="1" height="1" fill="#B95866" />
<rect x="56" y="22" width="1" height="1" fill="#B95866" />
<rect x="57" y="22" width="1" height="1" fill="#B95866" />
<rect x="58" y="22" width="1" height="1" fill="#B95866" />
<rect x="59" y="22" width="1" height="1" fill="#B95866" />
<rect x="60" y="22" width="1" height="1" fill="#B95866" />
<rect x="61" y="22" width="1" height="1" fill="#B95866" />
<rect x="62" y="22" width="1" height="1" fill="#B95866" />
<rect x="63" y="22" width="1" height="1" fill="#B95866" />
<rect x="64" y="22" width="1" height="1" fill="#B95866" />
<rect x="65" y="22" width="1" height="1" fill="#B95866" />
<rect x="66" y="22" width="1" height="1" fill="#B95866" />
<rect x="56" y="23" width="1" height="1" fill="#B95866" />
<rect x="57" y="23" width="1" height="1" fill="#B95866" />
<rect x="64" y="23" width="1" height="1" fill="#B95866" />
<rect x="65" y="23" width="1" height="1" fill="#B95866" />
<rect x="66" y="23" width="1" height="1" fill="#B95866" />
<rect x="55" y="24" width="1" height="1" fill="#B95866" />
<rect x="56" y="24" width="1" height="1" fill="#B95866" />
<rect x="57" y="24" width="1" height="1" fill="#B95866" />
<rect x="63" y="24" width="1" height="1" fill="#B95866" />
<rect x="65" y="24" width="1" height="1" fill="#B95866" />
<rect x="66" y="24" width="1" height="1" fill="#B95866" />
<rect x="56" y="25" width="1" height="1" fill="#B95866" />
<rect x="64" y="25" width="1" height="1" fill="#B95866" />
<rect x="65" y="25" width="1" height="1" fill="#B95866" />
<rect x="66" y="25" width="1" height="1" fill="#B95866" />
<rect x="56" y="26" width="1" height="1" fill="#B95866" />
<rect x="59" y="26" width="1" height="1" fill="#B95866" />
<rect x="63" y="26" width="1" height="1" fill="#B95866" />
<rect x="64" y="26" width="1" height="1" fill="#B95866" />
<rect x="65" y="26" width="1" height="1" fill="#B95866" />
<rect x="66" y="26" width="1" height="1" fill="#B95866" />
<rect x="56" y="27" width="1" height="1" fill="#B95866" />
<rect x="59" y="27" width="1" height="1" fill="#B95866" />
<rect x="62" y="27" width="1" height="1" fill="#B95866" />
<rect x="63" y="27" width="1" height="1" fill="#B95866" />
<rect x="64" y="27" width="1" height="1" fill="#B95866" />
<rect x="66" y="27" width="1" height="1" fill="#B95866" />
<rect x="61" y="28" width="1" height="1" fill="#B95866" />
<rect x="63" y="28" width="1" height="1" fill="#B95866" />
<rect x="65" y="28" width="1" height="1" fill="#B95866" />
<rect x="66" y="28" width="1" height="1" fill="#B95866" />
<rect x="64" y="29" width="1" height="1" fill="#B95866" />
<rect x="61" y="30" width="1" height="1" fill="#B95866" />
<rect x="62" y="30" width="1" height="1" fill="#B95866" />
<rect x="63" y="30" width="1" height="1" fill="#B95866" />
<rect x="62" y="31" width="1" height="1" fill="#B95866" />
<rect x="64" y="31" width="1" height="1" fill="#B95866" />
<rect x="57" y="32" width="1" height="1" fill="#B95866" />
<rect x="61" y="32" width="1" height="1" fill="#B95866" />
<rect x="62" y="32" width="1" height="1" fill="#B95866" />
<rect x="63" y="32" width="1" height="1" fill="#B95866" />
<rect x="64" y="32" width="1" height="1" fill="#B95866" />
<rect x="58" y="33" width="1" height="1" fill="#B95866" />
<rect x="62" y="33" width="1" height="1" fill="#B95866" />
<rect x="63" y="33" width="1" height="1" fill="#B95866" />
<rect x="59" y="34" width="1" height="1" fill="#B95866" />
<rect x="62" y="34" width="1" height="1" fill="#B95866" />
<rect x="63" y="34" width="1" height="1" fill="#B95866" />
<rect x="60" y="35" width="1" height="1" fill="#B95866" />
<rect x="61" y="35" width="1" height="1" fill="#B95866" />
<rect x="62" y="35" width="1" height="1" fill="#B95866" />
<rect x="63" y="35" width="1" height="1" fill="#B95866" />
<rect x="61" y="36" width="1" height="1" fill="#B95866" />
<rect x="65" y="36" width="1" height="1" fill="#B95866" />
<rect x="59" y="38" width="1" height="1" fill="#B95866" />
<rect x="61" y="38" width="1" height="1" fill="#B95866" />
<rect x="60" y="39" width="1" height="1" fill="#B95866" />
<rect x="61" y="39" width="1" height="1" fill="#B95866" />
<rect x="60" y="40" width="1" height="1" fill="#B95866" />
<rect x="61" y="40" width="1" height="1" fill="#B95866" />
<rect x="97" y="40" width="1" height="1" fill="#B95866" />
<rect x="105" y="40" width="1" height="1" fill="#B95866" />
<rect x="60" y="41" width="1" height="1" fill="#B95866" />
<rect x="102" y="41" width="1" height="1" fill="#B95866" />
<rect x="59" y="42" width="1" height="1" fill="#B95866" />
<rect x="60" y="42" width="1" height="1" fill="#B95866" />
<rect x="61" y="42" width="1" height="1" fill="#B95866" />
<rect x="101" y="42" width="1" height="1" fill="#B95866" />
<rect x="60" y="43" width="1" height="1" fill="#B95866" />
<rect x="61" y="43" width="1" height="1" fill="#B95866" />
<rect x="59" y="44" width="1" height="1" fill="#B95866" />
<rect x="60" y="44" width="1" height="1" fill="#B95866" />
<rect x="61" y="44" width="1" height="1" fill="#B95866" />
<rect x="97" y="44" width="1" height="1" fill="#B95866" />
<rect x="59" y="45" width="1" height="1" fill="#B95866" />
<rect x="60" y="45" width="1" height="1" fill="#B95866" />
<rect x="61" y="45" width="1" height="1" fill="#B95866" />
<rect x="59" y="46" width="1" height="1" fill="#B95866" />
<rect x="60" y="46" width="1" height="1" fill="#B95866" />
<rect x="61" y="46" width="1" height="1" fill="#B95866" />
<rect x="59" y="47" width="1" height="1" fill="#B95866" />
<rect x="60" y="47" width="1" height="1" fill="#B95866" />
<rect x="59" y="48" width="1" height="1" fill="#B95866" />
<rect x="60" y="48" width="1" height="1" fill="#B95866" />
<rect x="61" y="48" width="1" height="1" fill="#B95866" />
<rect x="59" y="49" width="1" height="1" fill="#B95866" />
<rect x="60" y="49" width="1" height="1" fill="#B95866" />
<rect x="59" y="50" width="1" height="1" fill="#B95866" />
<rect x="60" y="50" width="1" height="1" fill="#B95866" />
<rect x="61" y="50" width="1" height="1" fill="#B95866" />
<rect x="59" y="51" width="1" height="1" fill="#B95866" />
<rect x="60" y="51" width="1" height="1" fill="#B95866" />
<rect x="59" y="52" width="1" height="1" fill="#B95866" />
<rect x="60" y="52" width="1" height="1" fill="#B95866" />
<rect x="61" y="52" width="1" height="1" fill="#B95866" />
<rect x="59" y="53" width="1" height="1" fill="#B95866" />
<rect x="60" y="53" width="1" height="1" fill="#B95866" />
<rect x="59" y="54" width="1" height="1" fill="#B95866" />
<rect x="60" y="54" width="1" height="1" fill="#B95866" />
<rect x="61" y="54" width="1" height="1" fill="#B95866" />
<rect x="58" y="55" width="1" height="1" fill="#B95866" />
<rect x="59" y="55" width="1" height="1" fill="#B95866" />
<rect x="60" y="55" width="1" height="1" fill="#B95866" />
<rect x="58" y="56" width="1" height="1" fill="#B95866" />
<rect x="59" y="56" width="1" height="1" fill="#B95866" />
<rect x="60" y="56" width="1" height="1" fill="#B95866" />
<rect x="61" y="56" width="1" height="1" fill="#B95866" />
<rect x="58" y="57" width="1" height="1" fill="#B95866" />
<rect x="59" y="57" width="1" height="1" fill="#B95866" />
<rect x="60" y="57" width="1" height="1" fill="#B95866" />
<rect x="58" y="58" width="1" height="1" fill="#B95866" />
<rect x="59" y="58" width="1" height="1" fill="#B95866" />
<rect x="60" y="58" width="1" height="1" fill="#B95866" />
<rect x="61" y="58" width="1" height="1" fill="#B95866" />
<rect x="58" y="59" width="1" height="1" fill="#B95866" />
<rect x="59" y="59" width="1" height="1" fill="#B95866" />
<rect x="60" y="59" width="1" height="1" fill="#B95866" />
<rect x="58" y="60" width="1" height="1" fill="#B95866" />
<rect x="59" y="60" width="1" height="1" fill="#B95866" />
<rect x="60" y="60" width="1" height="1" fill="#B95866" />
<rect x="61" y="60" width="1" height="1" fill="#B95866" />
<rect x="58" y="61" width="1" height="1" fill="#B95866" />
<rect x="59" y="61" width="1" height="1" fill="#B95866" />
<rect x="60" y="61" width="1" height="1" fill="#B95866" />
<rect x="58" y="62" width="1" height="1" fill="#B95866" />
<rect x="59" y="62" width="1" height="1" fill="#B95866" />
<rect x="60" y="62" width="1" height="1" fill="#B95866" />
<rect x="61" y="62" width="1" height="1" fill="#B95866" />
<rect x="58" y="63" width="1" height="1" fill="#B95866" />
<rect x="59" y="63" width="1" height="1" fill="#B95866" />
<rect x="60" y="63" width="1" height="1" fill="#B95866" />
<rect x="58" y="64" width="1" height="1" fill="#B95866" />
<rect x="59" y="64" width="1" height="1" fill="#B95866" />
<rect x="60" y="64" width="1" height="1" fill="#B95866" />
<rect x="61" y="64" width="1" height="1" fill="#B95866" />
<rect x="70" y="64" width="1" height="1" fill="#B95866" />
<rect x="58" y="65" width="1" height="1" fill="#B95866" />
<rect x="59" y="65" width="1" height="1" fill="#B95866" />
<rect x="60" y="65" width="1" height="1" fill="#B95866" />
<rect x="68" y="65" width="1" height="1" fill="#B95866" />
<rect x="69" y="65" width="1" height="1" fill="#B95866" />
<rect x="70" y="65" width="1" height="1" fill="#B95866" />
<rect x="58" y="66" width="1" height="1" fill="#B95866" />
<rect x="59" y="66" width="1" height="1" fill="#B95866" />
<rect x="60" y="66" width="1" height="1" fill="#B95866" />
<rect x="61" y="66" width="1" height="1" fill="#B95866" />
<rect x="65" y="66" width="1" height="1" fill="#B95866" />
<rect x="67" y="66" width="1" height="1" fill="#B95866" />
<rect x="68" y="66" width="1" height="1" fill="#B95866" />
<rect x="69" y="66" width="1" height="1" fill="#B95866" />
<rect x="70" y="66" width="1" height="1" fill="#B95866" />
<rect x="51" y="67" width="1" height="1" fill="#B95866" />
<rect x="58" y="67" width="1" height="1" fill="#B95866" />
<rect x="59" y="67" width="1" height="1" fill="#B95866" />
<rect x="60" y="67" width="1" height="1" fill="#B95866" />
<rect x="61" y="67" width="1" height="1" fill="#B95866" />
<rect x="64" y="67" width="1" height="1" fill="#B95866" />
<rect x="65" y="67" width="1" height="1" fill="#B95866" />
<rect x="66" y="67" width="1" height="1" fill="#B95866" />
<rect x="67" y="67" width="1" height="1" fill="#B95866" />
<rect x="68" y="67" width="1" height="1" fill="#B95866" />
<rect x="69" y="67" width="1" height="1" fill="#B95866" />
<rect x="70" y="67" width="1" height="1" fill="#B95866" />
<rect x="51" y="68" width="1" height="1" fill="#B95866" />
<rect x="53" y="68" width="1" height="1" fill="#B95866" />
<rect x="55" y="68" width="1" height="1" fill="#B95866" />
<rect x="57" y="68" width="1" height="1" fill="#B95866" />
<rect x="58" y="68" width="1" height="1" fill="#B95866" />
<rect x="59" y="68" width="1" height="1" fill="#B95866" />
<rect x="60" y="68" width="1" height="1" fill="#B95866" />
<rect x="61" y="68" width="1" height="1" fill="#B95866" />
<rect x="62" y="68" width="1" height="1" fill="#B95866" />
<rect x="63" y="68" width="1" height="1" fill="#B95866" />
<rect x="64" y="68" width="1" height="1" fill="#B95866" />
<rect x="65" y="68" width="1" height="1" fill="#B95866" />
<rect x="66" y="68" width="1" height="1" fill="#B95866" />
<rect x="67" y="68" width="1" height="1" fill="#B95866" />
<rect x="68" y="68" width="1" height="1" fill="#B95866" />
<rect x="71" y="68" width="1" height="1" fill="#B95866" />
<rect x="51" y="69" width="1" height="1" fill="#B95866" />
<rect x="52" y="69" width="1" height="1" fill="#B95866" />
<rect x="53" y="69" width="1" height="1" fill="#B95866" />
<rect x="54" y="69" width="1" height="1" fill="#B95866" />
<rect x="55" y="69" width="1" height="1" fill="#B95866" />
<rect x="56" y="69" width="1" height="1" fill="#B95866" />
<rect x="57" y="69" width="1" height="1" fill="#B95866" />
<rect x="58" y="69" width="1" height="1" fill="#B95866" />
<rect x="59" y="69" width="1" height="1" fill="#B95866" />
<rect x="60" y="69" width="1" height="1" fill="#B95866" />
<rect x="61" y="69" width="1" height="1" fill="#B95866" />
<rect x="62" y="69" width="1" height="1" fill="#B95866" />
<rect x="63" y="69" width="1" height="1" fill="#B95866" />
<rect x="64" y="69" width="1" height="1" fill="#B95866" />
<rect x="70" y="69" width="1" height="1" fill="#B95866" />
<rect x="72" y="69" width="1" height="1" fill="#B95866" />
<rect x="51" y="70" width="1" height="1" fill="#B95866" />
<rect x="52" y="70" width="1" height="1" fill="#B95866" />
<rect x="53" y="70" width="1" height="1" fill="#B95866" />
<rect x="54" y="70" width="1" height="1" fill="#B95866" />
<rect x="55" y="70" width="1" height="1" fill="#B95866" />
<rect x="56" y="70" width="1" height="1" fill="#B95866" />
<rect x="57" y="70" width="1" height="1" fill="#B95866" />
<rect x="58" y="70" width="1" height="1" fill="#B95866" />
<rect x="59" y="70" width="1" height="1" fill="#B95866" />
<rect x="60" y="70" width="1" height="1" fill="#B95866" />
<rect x="61" y="70" width="1" height="1" fill="#B95866" />
<rect x="62" y="70" width="1" height="1" fill="#B95866" />
<rect x="63" y="70" width="1" height="1" fill="#B95866" />
<rect x="65" y="70" width="1" height="1" fill="#B95866" />
<rect x="69" y="70" width="1" height="1" fill="#B95866" />
<rect x="71" y="70" width="1" height="1" fill="#B95866" />
<rect x="72" y="70" width="1" height="1" fill="#B95866" />
<rect x="58" y="71" width="1" height="1" fill="#B95866" />
<rect x="59" y="71" width="1" height="1" fill="#B95866" />
<rect x="60" y="71" width="1" height="1" fill="#B95866" />
<rect x="61" y="71" width="1" height="1" fill="#B95866" />
<rect x="70" y="71" width="1" height="1" fill="#B95866" />
<rect x="72" y="71" width="1" height="1" fill="#B95866" />
<rect x="61" y="72" width="1" height="1" fill="#B95866" />
<rect x="65" y="72" width="1" height="1" fill="#B95866" />
<rect x="69" y="72" width="1" height="1" fill="#B95866" />
<rect x="71" y="72" width="1" height="1" fill="#B95866" />
<rect x="72" y="72" width="1" height="1" fill="#B95866" />
<rect x="68" y="73" width="1" height="1" fill="#B95866" />
<rect x="70" y="73" width="1" height="1" fill="#B95866" />
<rect x="72" y="73" width="1" height="1" fill="#B95866" />
<rect x="47" y="74" width="1" height="1" fill="#B95866" />
<rect x="61" y="74" width="1" height="1" fill="#B95866" />
<rect x="67" y="74" width="1" height="1" fill="#B95866" />
<rect x="69" y="74" width="1" height="1" fill="#B95866" />
<rect x="71" y="74" width="1" height="1" fill="#B95866" />
<rect x="72" y="74" width="1" height="1" fill="#B95866" />
<rect x="66" y="75" width="1" height="1" fill="#B95866" />
<rect x="68" y="75" width="1" height="1" fill="#B95866" />
<rect x="70" y="75" width="1" height="1" fill="#B95866" />
<rect x="71" y="75" width="1" height="1" fill="#B95866" />
<rect x="72" y="75" width="1" height="1" fill="#B95866" />
<rect x="63" y="76" width="1" height="1" fill="#B95866" />
<rect x="65" y="76" width="1" height="1" fill="#B95866" />
<rect x="67" y="76" width="1" height="1" fill="#B95866" />
<rect x="69" y="76" width="1" height="1" fill="#B95866" />
<rect x="70" y="76" width="1" height="1" fill="#B95866" />
<rect x="71" y="76" width="1" height="1" fill="#B95866" />
<rect x="68" y="77" width="1" height="1" fill="#B95866" />
<rect x="70" y="77" width="1" height="1" fill="#B95866" />
<rect x="63" y="78" width="1" height="1" fill="#B95866" />
<rect x="65" y="78" width="1" height="1" fill="#B95866" />
<rect x="69" y="78" width="1" height="1" fill="#B95866" />
<rect x="70" y="78" width="1" height="1" fill="#B95866" />
<rect x="71" y="78" width="1" height="1" fill="#B95866" />
<rect x="54" y="79" width="1" height="1" fill="#B95866" />
<rect x="56" y="79" width="1" height="1" fill="#B95866" />
<rect x="58" y="79" width="1" height="1" fill="#B95866" />
<rect x="59" y="79" width="1" height="1" fill="#B95866" />
<rect x="60" y="79" width="1" height="1" fill="#B95866" />
<rect x="64" y="79" width="1" height="1" fill="#B95866" />
<rect x="68" y="79" width="1" height="1" fill="#B95866" />
<rect x="70" y="79" width="1" height="1" fill="#B95866" />
<rect x="71" y="79" width="1" height="1" fill="#B95866" />
<rect x="53" y="80" width="1" height="1" fill="#B95866" />
<rect x="55" y="80" width="1" height="1" fill="#B95866" />
<rect x="57" y="80" width="1" height="1" fill="#B95866" />
<rect x="59" y="80" width="1" height="1" fill="#B95866" />
<rect x="60" y="80" width="1" height="1" fill="#B95866" />
<rect x="63" y="80" width="1" height="1" fill="#B95866" />
<rect x="67" y="80" width="1" height="1" fill="#B95866" />
<rect x="68" y="80" width="1" height="1" fill="#B95866" />
<rect x="69" y="80" width="1" height="1" fill="#B95866" />
<rect x="70" y="80" width="1" height="1" fill="#B95866" />
<rect x="71" y="80" width="1" height="1" fill="#B95866" />
<rect x="58" y="81" width="1" height="1" fill="#B95866" />
<rect x="60" y="81" width="1" height="1" fill="#B95866" />
<rect x="68" y="81" width="1" height="1" fill="#B95866" />
<rect x="70" y="81" width="1" height="1" fill="#B95866" />
<rect x="59" y="82" width="1" height="1" fill="#B95866" />
<rect x="60" y="82" width="1" height="1" fill="#B95866" />
<rect x="61" y="82" width="1" height="1" fill="#B95866" />
<rect x="67" y="82" width="1" height="1" fill="#B95866" />
<rect x="68" y="82" width="1" height="1" fill="#B95866" />
<rect x="69" y="82" width="1" height="1" fill="#B95866" />
<rect x="70" y="82" width="1" height="1" fill="#B95866" />
<rect x="58" y="83" width="1" height="1" fill="#B95866" />
<rect x="60" y="83" width="1" height="1" fill="#B95866" />
<rect x="66" y="83" width="1" height="1" fill="#B95866" />
<rect x="68" y="83" width="1" height="1" fill="#B95866" />
<rect x="70" y="83" width="1" height="1" fill="#B95866" />
<rect x="55" y="84" width="1" height="1" fill="#B95866" />
<rect x="59" y="84" width="1" height="1" fill="#B95866" />
<rect x="60" y="84" width="1" height="1" fill="#B95866" />
<rect x="61" y="84" width="1" height="1" fill="#B95866" />
<rect x="62" y="84" width="1" height="1" fill="#B95866" />
<rect x="63" y="84" width="1" height="1" fill="#B95866" />
<rect x="65" y="84" width="1" height="1" fill="#B95866" />
<rect x="67" y="84" width="1" height="1" fill="#B95866" />
<rect x="68" y="84" width="1" height="1" fill="#B95866" />
<rect x="69" y="84" width="1" height="1" fill="#B95866" />
<rect x="70" y="84" width="1" height="1" fill="#B95866" />
<rect x="59" y="85" width="1" height="1" fill="#B95866" />
<rect x="60" y="85" width="1" height="1" fill="#B95866" />
<rect x="61" y="85" width="1" height="1" fill="#B95866" />
<rect x="62" y="85" width="1" height="1" fill="#B95866" />
<rect x="68" y="85" width="1" height="1" fill="#B95866" />
<rect x="70" y="85" width="1" height="1" fill="#B95866" />
<rect x="55" y="86" width="1" height="1" fill="#B95866" />
<rect x="58" y="86" width="1" height="1" fill="#B95866" />
<rect x="59" y="86" width="1" height="1" fill="#B95866" />
<rect x="60" y="86" width="1" height="1" fill="#B95866" />
<rect x="61" y="86" width="1" height="1" fill="#B95866" />
<rect x="65" y="86" width="1" height="1" fill="#B95866" />
<rect x="67" y="86" width="1" height="1" fill="#B95866" />
<rect x="68" y="86" width="1" height="1" fill="#B95866" />
<rect x="69" y="86" width="1" height="1" fill="#B95866" />
<rect x="70" y="86" width="1" height="1" fill="#B95866" />
<rect x="57" y="87" width="1" height="1" fill="#B95866" />
<rect x="58" y="87" width="1" height="1" fill="#B95866" />
<rect x="59" y="87" width="1" height="1" fill="#B95866" />
<rect x="60" y="87" width="1" height="1" fill="#B95866" />
<rect x="61" y="87" width="1" height="1" fill="#B95866" />
<rect x="68" y="87" width="1" height="1" fill="#B95866" />
<rect x="69" y="87" width="1" height="1" fill="#B95866" />
<rect x="70" y="87" width="1" height="1" fill="#B95866" />
<rect x="56" y="88" width="1" height="1" fill="#B95866" />
<rect x="58" y="88" width="1" height="1" fill="#B95866" />
<rect x="59" y="88" width="1" height="1" fill="#B95866" />
<rect x="61" y="88" width="1" height="1" fill="#B95866" />
<rect x="63" y="88" width="1" height="1" fill="#B95866" />
<rect x="67" y="88" width="1" height="1" fill="#B95866" />
<rect x="68" y="88" width="1" height="1" fill="#B95866" />
<rect x="69" y="88" width="1" height="1" fill="#B95866" />
<rect x="58" y="89" width="1" height="1" fill="#B95866" />
<rect x="60" y="89" width="1" height="1" fill="#B95866" />
<rect x="62" y="89" width="1" height="1" fill="#B95866" />
<rect x="68" y="89" width="1" height="1" fill="#B95866" />
<rect x="55" y="90" width="1" height="1" fill="#B95866" />
<rect x="57" y="90" width="1" height="1" fill="#B95866" />
<rect x="58" y="90" width="1" height="1" fill="#B95866" />
<rect x="61" y="90" width="1" height="1" fill="#B95866" />
<rect x="65" y="90" width="1" height="1" fill="#B95866" />
<rect x="67" y="90" width="1" height="1" fill="#B95866" />
<rect x="68" y="90" width="1" height="1" fill="#B95866" />
<rect x="69" y="90" width="1" height="1" fill="#B95866" />
<rect x="56" y="91" width="1" height="1" fill="#B95866" />
<rect x="58" y="91" width="1" height="1" fill="#B95866" />
<rect x="60" y="91" width="1" height="1" fill="#B95866" />
<rect x="62" y="91" width="1" height="1" fill="#B95866" />
<rect x="68" y="91" width="1" height="1" fill="#B95866" />
<rect x="55" y="92" width="1" height="1" fill="#B95866" />
<rect x="57" y="92" width="1" height="1" fill="#B95866" />
<rect x="58" y="92" width="1" height="1" fill="#B95866" />
<rect x="61" y="92" width="1" height="1" fill="#B95866" />
<rect x="63" y="92" width="1" height="1" fill="#B95866" />
<rect x="67" y="92" width="1" height="1" fill="#B95866" />
<rect x="68" y="92" width="1" height="1" fill="#B95866" />
<rect x="69" y="92" width="1" height="1" fill="#B95866" />
<rect x="54" y="93" width="1" height="1" fill="#B95866" />
<rect x="56" y="93" width="1" height="1" fill="#B95866" />
<rect x="58" y="93" width="1" height="1" fill="#B95866" />
<rect x="60" y="93" width="1" height="1" fill="#B95866" />
<rect x="61" y="93" width="1" height="1" fill="#B95866" />
<rect x="62" y="93" width="1" height="1" fill="#B95866" />
<rect x="67" y="93" width="1" height="1" fill="#B95866" />
<rect x="68" y="93" width="1" height="1" fill="#B95866" />
<rect x="55" y="94" width="1" height="1" fill="#B95866" />
<rect x="57" y="94" width="1" height="1" fill="#B95866" />
<rect x="58" y="94" width="1" height="1" fill="#B95866" />
<rect x="61" y="94" width="1" height="1" fill="#B95866" />
<rect x="63" y="94" width="1" height="1" fill="#B95866" />
<rect x="65" y="94" width="1" height="1" fill="#B95866" />
<rect x="67" y="94" width="1" height="1" fill="#B95866" />
<rect x="69" y="94" width="1" height="1" fill="#B95866" />
<rect x="58" y="95" width="1" height="1" fill="#B95866" />
<rect x="60" y="95" width="1" height="1" fill="#B95866" />
<rect x="61" y="95" width="1" height="1" fill="#B95866" />
<rect x="62" y="95" width="1" height="1" fill="#B95866" />
<rect x="67" y="95" width="1" height="1" fill="#B95866" />
<rect x="68" y="95" width="1" height="1" fill="#B95866" />
<rect x="57" y="96" width="1" height="1" fill="#B95866" />
<rect x="60" y="96" width="1" height="1" fill="#B95866" />
<rect x="61" y="96" width="1" height="1" fill="#B95866" />
<rect x="62" y="96" width="1" height="1" fill="#B95866" />
<rect x="63" y="96" width="1" height="1" fill="#B95866" />
<rect x="65" y="96" width="1" height="1" fill="#B95866" />
<rect x="67" y="96" width="1" height="1" fill="#B95866" />
<rect x="69" y="96" width="1" height="1" fill="#B95866" />
<rect x="54" y="97" width="1" height="1" fill="#B95866" />
<rect x="60" y="97" width="1" height="1" fill="#B95866" />
<rect x="61" y="97" width="1" height="1" fill="#B95866" />
<rect x="62" y="97" width="1" height="1" fill="#B95866" />
<rect x="66" y="97" width="1" height="1" fill="#B95866" />
<rect x="67" y="97" width="1" height="1" fill="#B95866" />
<rect x="68" y="97" width="1" height="1" fill="#B95866" />
<rect x="59" y="98" width="1" height="1" fill="#B95866" />
<rect x="60" y="98" width="1" height="1" fill="#B95866" />
<rect x="61" y="98" width="1" height="1" fill="#B95866" />
<rect x="62" y="98" width="1" height="1" fill="#B95866" />
<rect x="63" y="98" width="1" height="1" fill="#B95866" />
<rect x="65" y="98" width="1" height="1" fill="#B95866" />
<rect x="66" y="98" width="1" height="1" fill="#B95866" />
<rect x="67" y="98" width="1" height="1" fill="#B95866" />
<rect x="56" y="99" width="1" height="1" fill="#B95866" />
<rect x="58" y="99" width="1" height="1" fill="#B95866" />
<rect x="59" y="99" width="1" height="1" fill="#B95866" />
<rect x="60" y="99" width="1" height="1" fill="#B95866" />
<rect x="62" y="99" width="1" height="1" fill="#B95866" />
<rect x="63" y="99" width="1" height="1" fill="#B95866" />
<rect x="64" y="99" width="1" height="1" fill="#B95866" />
<rect x="66" y="99" width="1" height="1" fill="#B95866" />
<rect x="68" y="99" width="1" height="1" fill="#B95866" />
<rect x="53" y="100" width="1" height="1" fill="#B95866" />
<rect x="55" y="100" width="1" height="1" fill="#B95866" />
<rect x="56" y="100" width="1" height="1" fill="#B95866" />
<rect x="57" y="100" width="1" height="1" fill="#B95866" />
<rect x="58" y="100" width="1" height="1" fill="#B95866" />
<rect x="59" y="100" width="1" height="1" fill="#B95866" />
<rect x="61" y="100" width="1" height="1" fill="#B95866" />
<rect x="63" y="100" width="1" height="1" fill="#B95866" />
<rect x="64" y="100" width="1" height="1" fill="#B95866" />
<rect x="65" y="100" width="1" height="1" fill="#B95866" />
<rect x="66" y="100" width="1" height="1" fill="#B95866" />
<rect x="67" y="100" width="1" height="1" fill="#B95866" />
<rect x="68" y="100" width="1" height="1" fill="#B95866" />
<rect x="54" y="101" width="1" height="1" fill="#B95866" />
<rect x="56" y="101" width="1" height="1" fill="#B95866" />
<rect x="62" y="101" width="1" height="1" fill="#B95866" />
<rect x="64" y="101" width="1" height="1" fill="#B95866" />
<rect x="66" y="101" width="1" height="1" fill="#B95866" />
<rect x="68" y="101" width="1" height="1" fill="#B95866" />
<rect x="53" y="102" width="1" height="1" fill="#B95866" />
<rect x="55" y="102" width="1" height="1" fill="#B95866" />
<rect x="57" y="102" width="1" height="1" fill="#B95866" />
<rect x="59" y="102" width="1" height="1" fill="#B95866" />
<rect x="61" y="102" width="1" height="1" fill="#B95866" />
<rect x="63" y="102" width="1" height="1" fill="#B95866" />
<rect x="64" y="102" width="1" height="1" fill="#B95866" />
<rect x="65" y="102" width="1" height="1" fill="#B95866" />
<rect x="66" y="102" width="1" height="1" fill="#B95866" />
<rect x="67" y="102" width="1" height="1" fill="#B95866" />
<rect x="68" y="102" width="1" height="1" fill="#B95866" />
<rect x="62" y="103" width="1" height="1" fill="#B95866" />
<rect x="64" y="103" width="1" height="1" fill="#B95866" />
<rect x="65" y="103" width="1" height="1" fill="#B95866" />
<rect x="66" y="103" width="1" height="1" fill="#B95866" />
<rect x="68" y="103" width="1" height="1" fill="#B95866" />
<rect x="55" y="104" width="1" height="1" fill="#B95866" />
<rect x="57" y="104" width="1" height="1" fill="#B95866" />
<rect x="59" y="104" width="1" height="1" fill="#B95866" />
<rect x="61" y="104" width="1" height="1" fill="#B95866" />
<rect x="63" y="104" width="1" height="1" fill="#B95866" />
<rect x="65" y="104" width="1" height="1" fill="#B95866" />
<rect x="66" y="104" width="1" height="1" fill="#B95866" />
<rect x="67" y="104" width="1" height="1" fill="#B95866" />
<rect x="68" y="104" width="1" height="1" fill="#B95866" />
<rect x="64" y="105" width="1" height="1" fill="#B95866" />
<rect x="67" y="105" width="1" height="1" fill="#B95866" />
<rect x="68" y="105" width="1" height="1" fill="#B95866" />
<rect x="57" y="106" width="1" height="1" fill="#B95866" />
<rect x="59" y="106" width="1" height="1" fill="#B95866" />
<rect x="61" y="106" width="1" height="1" fill="#B95866" />
<rect x="63" y="106" width="1" height="1" fill="#B95866" />
<rect x="65" y="106" width="1" height="1" fill="#B95866" />
<rect x="67" y="106" width="1" height="1" fill="#B95866" />
<rect x="68" y="106" width="1" height="1" fill="#B95866" />
<rect x="64" y="107" width="1" height="1" fill="#B95866" />
<rect x="66" y="107" width="1" height="1" fill="#B95866" />
<rect x="59" y="108" width="1" height="1" fill="#B95866" />
<rect x="61" y="108" width="1" height="1" fill="#B95866" />
<rect x="63" y="108" width="1" height="1" fill="#B95866" />
<rect x="65" y="108" width="1" height="1" fill="#B95866" />
<rect x="66" y="108" width="1" height="1" fill="#B95866" />
<rect x="67" y="108" width="1" height="1" fill="#B95866" />
<rect x="62" y="109" width="1" height="1" fill="#B95866" />
<rect x="64" y="109" width="1" height="1" fill="#B95866" />
<rect x="66" y="109" width="1" height="1" fill="#B95866" />
<rect x="68" y="109" width="1" height="1" fill="#B95866" />
<rect x="59" y="110" width="1" height="1" fill="#B95866" />
<rect x="61" y="110" width="1" height="1" fill="#B95866" />
<rect x="63" y="110" width="1" height="1" fill="#B95866" />
<rect x="65" y="110" width="1" height="1" fill="#B95866" />
<rect x="67" y="110" width="1" height="1" fill="#B95866" />
<rect x="68" y="110" width="1" height="1" fill="#B95866" />
<rect x="69" y="110" width="1" height="1" fill="#B95866" />
<rect x="70" y="110" width="1" height="1" fill="#B95866" />
<rect x="66" y="111" width="1" height="1" fill="#B95866" />
<rect x="71" y="111" width="1" height="1" fill="#B95866" />
<rect x="72" y="111" width="1" height="1" fill="#B95866" />
<rect x="73" y="111" width="1" height="1" fill="#B95866" />
<rect x="74" y="111" width="1" height="1" fill="#B95866" />
<rect x="75" y="111" width="1" height="1" fill="#B95866" />
<rect x="59" y="112" width="1" height="1" fill="#B95866" />
<rect x="61" y="112" width="1" height="1" fill="#B95866" />
<rect x="63" y="112" width="1" height="1" fill="#B95866" />
<rect x="65" y="112" width="1" height="1" fill="#B95866" />
<rect x="67" y="112" width="1" height="1" fill="#B95866" />
<rect x="69" y="112" width="1" height="1" fill="#B95866" />
<rect x="71" y="112" width="1" height="1" fill="#B95866" />
<rect x="72" y="112" width="1" height="1" fill="#B95866" />
<rect x="73" y="112" width="1" height="1" fill="#B95866" />
<rect x="74" y="112" width="1" height="1" fill="#B95866" />
<rect x="75" y="112" width="1" height="1" fill="#B95866" />
<rect x="60" y="113" width="1" height="1" fill="#B95866" />
<rect x="70" y="113" width="1" height="1" fill="#B95866" />
<rect x="71" y="113" width="1" height="1" fill="#B95866" />
<rect x="72" y="113" width="1" height="1" fill="#B95866" />
<rect x="73" y="113" width="1" height="1" fill="#B95866" />
<rect x="74" y="113" width="1" height="1" fill="#B95866" />
<rect x="75" y="113" width="1" height="1" fill="#B95866" />
<rect x="59" y="114" width="1" height="1" fill="#B95866" />
<rect x="61" y="114" width="1" height="1" fill="#B95866" />
<rect x="63" y="114" width="1" height="1" fill="#B95866" />
<rect x="65" y="114" width="1" height="1" fill="#B95866" />
<rect x="67" y="114" width="1" height="1" fill="#B95866" />
<rect x="69" y="114" width="1" height="1" fill="#B95866" />
<rect x="70" y="114" width="1" height="1" fill="#B95866" />
<rect x="71" y="114" width="1" height="1" fill="#B95866" />
<rect x="72" y="114" width="1" height="1" fill="#B95866" />
<rect x="73" y="114" width="1" height="1" fill="#B95866" />
<rect x="74" y="114" width="1" height="1" fill="#B95866" />
<rect x="75" y="114" width="1" height="1" fill="#B95866" />
<rect x="58" y="115" width="1" height="1" fill="#B95866" />
<rect x="62" y="115" width="1" height="1" fill="#B95866" />
<rect x="70" y="115" width="1" height="1" fill="#B95866" />
<rect x="71" y="115" width="1" height="1" fill="#B95866" />
<rect x="72" y="115" width="1" height="1" fill="#B95866" />
<rect x="73" y="115" width="1" height="1" fill="#B95866" />
<rect x="74" y="115" width="1" height="1" fill="#B95866" />
<rect x="75" y="115" width="1" height="1" fill="#B95866" />
<rect x="59" y="116" width="1" height="1" fill="#B95866" />
<rect x="61" y="116" width="1" height="1" fill="#B95866" />
<rect x="62" y="116" width="1" height="1" fill="#B95866" />
<rect x="63" y="116" width="1" height="1" fill="#B95866" />
<rect x="65" y="116" width="1" height="1" fill="#B95866" />
<rect x="67" y="116" width="1" height="1" fill="#B95866" />
<rect x="69" y="116" width="1" height="1" fill="#B95866" />
<rect x="70" y="116" width="1" height="1" fill="#B95866" />
<rect x="71" y="116" width="1" height="1" fill="#B95866" />
<rect x="72" y="116" width="1" height="1" fill="#B95866" />
<rect x="73" y="116" width="1" height="1" fill="#B95866" />
<rect x="74" y="116" width="1" height="1" fill="#B95866" />
<rect x="60" y="117" width="1" height="1" fill="#B95866" />
<rect x="61" y="117" width="1" height="1" fill="#B95866" />
<rect x="62" y="117" width="1" height="1" fill="#B95866" />
<rect x="64" y="117" width="1" height="1" fill="#B95866" />
<rect x="66" y="117" width="1" height="1" fill="#B95866" />
<rect x="68" y="117" width="1" height="1" fill="#B95866" />
<rect x="69" y="117" width="1" height="1" fill="#B95866" />
<rect x="70" y="117" width="1" height="1" fill="#B95866" />
<rect x="71" y="117" width="1" height="1" fill="#B95866" />
<rect x="72" y="117" width="1" height="1" fill="#B95866" />
<rect x="73" y="117" width="1" height="1" fill="#B95866" />
<rect x="74" y="117" width="1" height="1" fill="#B95866" />
<rect x="57" y="118" width="1" height="1" fill="#B95866" />
<rect x="59" y="118" width="1" height="1" fill="#B95866" />
<rect x="61" y="118" width="1" height="1" fill="#B95866" />
<rect x="63" y="118" width="1" height="1" fill="#B95866" />
<rect x="64" y="118" width="1" height="1" fill="#B95866" />
<rect x="65" y="118" width="1" height="1" fill="#B95866" />
<rect x="69" y="118" width="1" height="1" fill="#B95866" />
<rect x="70" y="118" width="1" height="1" fill="#B95866" />
<rect x="71" y="118" width="1" height="1" fill="#B95866" />
<rect x="72" y="118" width="1" height="1" fill="#B95866" />
<rect x="73" y="118" width="1" height="1" fill="#B95866" />
<rect x="74" y="118" width="1" height="1" fill="#B95866" />
<rect x="75" y="118" width="1" height="1" fill="#B95866" />
<rect x="62" y="119" width="1" height="1" fill="#B95866" />
<rect x="63" y="119" width="1" height="1" fill="#B95866" />
<rect x="64" y="119" width="1" height="1" fill="#B95866" />
<rect x="69" y="119" width="1" height="1" fill="#B95866" />
<rect x="70" y="119" width="1" height="1" fill="#B95866" />
<rect x="71" y="119" width="1" height="1" fill="#B95866" />
<rect x="72" y="119" width="1" height="1" fill="#B95866" />
<rect x="73" y="119" width="1" height="1" fill="#B95866" />
<rect x="74" y="119" width="1" height="1" fill="#B95866" />
<rect x="75" y="119" width="1" height="1" fill="#B95866" />
<rect x="61" y="120" width="1" height="1" fill="#B95866" />
<rect x="62" y="120" width="1" height="1" fill="#B95866" />
<rect x="63" y="120" width="1" height="1" fill="#B95866" />
<rect x="70" y="120" width="1" height="1" fill="#B95866" />
<rect x="71" y="120" width="1" height="1" fill="#B95866" />
<rect x="72" y="120" width="1" height="1" fill="#B95866" />
<rect x="73" y="120" width="1" height="1" fill="#B95866" />
<rect x="74" y="120" width="1" height="1" fill="#B95866" />
<rect x="75" y="120" width="1" height="1" fill="#B95866" />
<rect x="62" y="121" width="1" height="1" fill="#B95866" />
<rect x="71" y="121" width="1" height="1" fill="#B95866" />
<rect x="72" y="121" width="1" height="1" fill="#B95866" />
<rect x="73" y="121" width="1" height="1" fill="#B95866" />
<rect x="74" y="121" width="1" height="1" fill="#B95866" />
<rect x="75" y="121" width="1" height="1" fill="#B95866" />
<rect x="58" y="122" width="1" height="1" fill="#B95866" />
<rect x="59" y="122" width="1" height="1" fill="#B95866" />
<rect x="60" y="122" width="1" height="1" fill="#B95866" />
<rect x="61" y="122" width="1" height="1" fill="#B95866" />
<rect x="62" y="122" width="1" height="1" fill="#B95866" />
<rect x="71" y="122" width="1" height="1" fill="#B95866" />
<rect x="72" y="122" width="1" height="1" fill="#B95866" />
<rect x="73" y="122" width="1" height="1" fill="#B95866" />
<rect x="74" y="122" width="1" height="1" fill="#B95866" />
<rect x="75" y="122" width="1" height="1" fill="#B95866" />
<rect x="58" y="123" width="1" height="1" fill="#B95866" />
<rect x="59" y="123" width="1" height="1" fill="#B95866" />
<rect x="60" y="123" width="1" height="1" fill="#B95866" />
<rect x="61" y="123" width="1" height="1" fill="#B95866" />
<rect x="62" y="123" width="1" height="1" fill="#B95866" />
<rect x="71" y="123" width="1" height="1" fill="#B95866" />
<rect x="72" y="123" width="1" height="1" fill="#B95866" />
<rect x="73" y="123" width="1" height="1" fill="#B95866" />
<rect x="74" y="123" width="1" height="1" fill="#B95866" />
<rect x="75" y="123" width="1" height="1" fill="#B95866" />
<rect x="58" y="124" width="1" height="1" fill="#B95866" />
<rect x="59" y="124" width="1" height="1" fill="#B95866" />
<rect x="60" y="124" width="1" height="1" fill="#B95866" />
<rect x="61" y="124" width="1" height="1" fill="#B95866" />
<rect x="62" y="124" width="1" height="1" fill="#B95866" />
<rect x="71" y="124" width="1" height="1" fill="#B95866" />
<rect x="72" y="124" width="1" height="1" fill="#B95866" />
<rect x="73" y="124" width="1" height="1" fill="#B95866" />
<rect x="74" y="124" width="1" height="1" fill="#B95866" />
<rect x="75" y="124" width="1" height="1" fill="#B95866" />
<rect x="58" y="125" width="1" height="1" fill="#B95866" />
<rect x="59" y="125" width="1" height="1" fill="#B95866" />
<rect x="60" y="125" width="1" height="1" fill="#B95866" />
<rect x="61" y="125" width="1" height="1" fill="#B95866" />
<rect x="62" y="125" width="1" height="1" fill="#B95866" />
<rect x="72" y="125" width="1" height="1" fill="#B95866" />
<rect x="73" y="125" width="1" height="1" fill="#B95866" />
<rect x="74" y="125" width="1" height="1" fill="#B95866" />
<rect x="75" y="125" width="1" height="1" fill="#B95866" />
<rect x="59" y="126" width="1" height="1" fill="#B95866" />
<rect x="60" y="126" width="1" height="1" fill="#B95866" />
<rect x="61" y="126" width="1" height="1" fill="#B95866" />
<rect x="62" y="126" width="1" height="1" fill="#B95866" />
<rect x="63" y="126" width="1" height="1" fill="#B95866" />
<rect x="72" y="126" width="1" height="1" fill="#B95866" />
<rect x="73" y="126" width="1" height="1" fill="#B95866" />
<rect x="74" y="126" width="1" height="1" fill="#B95866" />
<rect x="58" y="127" width="1" height="1" fill="#B95866" />
<rect x="59" y="127" width="1" height="1" fill="#B95866" />
<rect x="60" y="127" width="1" height="1" fill="#B95866" />
<rect x="61" y="127" width="1" height="1" fill="#B95866" />
<rect x="62" y="127" width="1" height="1" fill="#B95866" />
<rect x="63" y="127" width="1" height="1" fill="#B95866" />
<rect x="72" y="127" width="1" height="1" fill="#B95866" />
<rect x="73" y="127" width="1" height="1" fill="#B95866" />
<rect x="74" y="127" width="1" height="1" fill="#B95866" />
<rect x="58" y="128" width="1" height="1" fill="#B95866" />
<rect x="59" y="128" width="1" height="1" fill="#B95866" />
<rect x="60" y="128" width="1" height="1" fill="#B95866" />
<rect x="61" y="128" width="1" height="1" fill="#B95866" />
<rect x="62" y="128" width="1" height="1" fill="#B95866" />
<rect x="63" y="128" width="1" height="1" fill="#B95866" />
<rect x="64" y="128" width="1" height="1" fill="#B95866" />
<rect x="59" y="129" width="1" height="1" fill="#B95866" />
<rect x="60" y="129" width="1" height="1" fill="#B95866" />
<rect x="61" y="129" width="1" height="1" fill="#B95866" />
<rect x="62" y="129" width="1" height="1" fill="#B95866" />
<rect x="63" y="129" width="1" height="1" fill="#B95866" />
</svg>