<?xml version="1.0" encoding="UTF-8" ?>
<svg version="1.1" width="42" height="42" xmlns="http://www.w3.org/2000/svg" shape-rendering="crispEdges">
<rect x="14" y="14" width="1" height="1" fill="#222222" />
<rect x="15" y="14" width="1" height="1" fill="#222222" />
<rect x="16" y="14" width="1" height="1" fill="#222222" />
<rect x="17" y="14" width="1" height="1" fill="#222222" />
<rect x="18" y="14" width="1" height="1" fill="#222222" />
<rect x="19" y="14" width="1" height="1" fill="#222222" />
<rect x="20" y="14" width="1" height="1" fill="#222222" />
<rect x="21" y="14" width="1" height="1" fill="#222222" />
<rect x="22" y="14" width="1" height="1" fill="#222222" />
<rect x="23" y="14" width="1" height="1" fill="#222222" />
<rect x="24" y="14" width="1" height="1" fill="#222222" />
<rect x="25" y="14" width="1" height="1" fill="#222222" />
<rect x="26" y="14" width="1" height="1" fill="#222222" />
<rect x="27" y="14" width="1" height="1" fill="#222222" />
<rect x="14" y="15" width="1" height="1" fill="#222222" />
<rect x="15" y="15" width="1" height="1" fill="#222222" />
<rect x="16" y="15" width="1" height="1" fill="#222222" />
<rect x="17" y="15" width="1" height="1" fill="#222222" />
<rect x="18" y="15" width="1" height="1" fill="#222222" />
<rect x="19" y="15" width="1" height="1" fill="#222222" />
<rect x="20" y="15" width="1" height="1" fill="#222222" />
<rect x="21" y="15" width="1" height="1" fill="#222222" />
<rect x="22" y="15" width="1" height="1" fill="#222222" />
<rect x="23" y="15" width="1" height="1" fill="#222222" />
<rect x="24" y="15" width="1" height="1" fill="#222222" />
<rect x="25" y="15" width="1" height="1" fill="#222222" />
<rect x="26" y="15" width="1" height="1" fill="#222222" />
<rect x="27" y="15" width="1" height="1" fill="#222222" />
<rect x="14" y="16" width="1" height="1" fill="#222222" />
<rect x="15" y="16" width="1" height="1" fill="#222222" />
<rect x="16" y="16" width="1" height="1" fill="#222222" />
<rect x="17" y="16" width="1" height="1" fill="#222222" />
<rect x="18" y="16" width="1" height="1" fill="#222222" />
<rect x="19" y="16" width="1" height="1" fill="#222222" />
<rect x="20" y="16" width="1" height="1" fill="#222222" />
<rect x="21" y="16" width="1" height="1" fill="#222222" />
<rect x="22" y="16" width="1" height="1" fill="#222222" />
<rect x="23" y="16" width="1" height="1" fill="#222222" />
<rect x="24" y="16" width="1" height="1" fill="#222222" />
<rect x="25" y="16" width="1" height="1" fill="#222222" />
<rect x="26" y="16" width="1" height="1" fill="#222222" />
<rect x="27" y="16" width="1" height="1" fill="#222222" />
<rect x="14" y="17" width="1" height="1" fill="#222222" />
<rect x="15" y="17" width="1" height="1" fill="#222222" />
<rect x="16" y="17" width="1" height="1" fill="#222222" />
<rect x="17" y="17" width="1" height="1" fill="#222222" />
<rect x="18" y="17" width="1" height="1" fill="#222222" />
<rect x="19" y="17" width="1" height="1" fill="#222222" />
<rect x="20" y="17" width="1" height="1" fill="#222222" />
<rect x="21" y="17" width="1" height="1" fill="#222222" />
<rect x="22" y="17" width="1" height="1" fill="#222222" />
<rect x="23" y="17" width="1" height="1" fill="#222222" />
<rect x="24" y="17" width="1" height="1" fill="#222222" />
<rect x="25" y="17" width="1" height="1" fill="#222222" />
<rect x="26" y="17" width="1" height="1" fill="#222222" />
<rect x="27" y="17" width="1" height="1" fill="#222222" />
<rect x="14" y="18" width="1" height="1" fill="#222222" />
<rect x="15" y="18" width="1" height="1" fill="#222222" />
<rect x="16" y="18" width="1" height="1" fill="#222222" />
<rect x="17" y="18" width="1" height="1" fill="#222222" />
<rect x="18" y="18" width="1" height="1" fill="#222222" />
<rect x="19" y="18" width="1" height="1" fill="#222222" />
<rect x="20" y="18" width="1" height="1" fill="#222222" />
<rect x="21" y="18" width="1" height="1" fill="#222222" />
<rect x="22" y="18" width="1" height="1" fill="#222222" />
<rect x="23" y="18" width="1" height="1" fill="#222222" />
<rect x="24" y="18" width="1" height="1" fill="#222222" />
<rect x="25" y="18" width="1" height="1" fill="#222222" />
<rect x="26" y="18" width="1" height="1" fill="#222222" />
<rect x="27" y="18" width="1" height="1" fill="#222222" />
<rect x="19" y="19" width="1" height="1" fill="#222222" />
<rect x="20" y="19" width="1" height="1" fill="#222222" />
<rect x="21" y="19" width="1" height="1" fill="#222222" />
<rect x="22" y="19" width="1" height="1" fill="#222222" />
<rect x="23" y="19" width="1" height="1" fill="#222222" />
<rect x="24" y="19" width="1" height="1" fill="#222222" />
<rect x="25" y="19" width="1" height="1" fill="#222222" />
<rect x="26" y="19" width="1" height="1" fill="#222222" />
<rect x="27" y="19" width="1" height="1" fill="#222222" />
<rect x="19" y="20" width="1" height="1" fill="#222222" />
<rect x="20" y="20" width="1" height="1" fill="#222222" />
<rect x="21" y="20" width="1" height="1" fill="#222222" />
<rect x="22" y="20" width="1" height="1" fill="#222222" />
<rect x="23" y="20" width="1" height="1" fill="#222222" />
<rect x="24" y="20" width="1" height="1" fill="#222222" />
<rect x="25" y="20" width="1" height="1" fill="#222222" />
<rect x="26" y="20" width="1" height="1" fill="#222222" />
<rect x="27" y="20" width="1" height="1" fill="#222222" />
<rect x="19" y="21" width="1" height="1" fill="#222222" />
<rect x="20" y="21" width="1" height="1" fill="#222222" />
<rect x="21" y="21" width="1" height="1" fill="#222222" />
<rect x="22" y="21" width="1" height="1" fill="#222222" />
<rect x="23" y="21" width="1" height="1" fill="#222222" />
<rect x="24" y="21" width="1" height="1" fill="#222222" />
<rect x="25" y="21" width="1" height="1" fill="#222222" />
<rect x="26" y="21" width="1" height="1" fill="#222222" />
<rect x="27" y="21" width="1" height="1" fill="#222222" />
<rect x="19" y="22" width="1" height="1" fill="#222222" />
<rect x="20" y="22" width="1" height="1" fill="#222222" />
<rect x="21" y="22" width="1" height="1" fill="#222222" />
<rect x="22" y="22" width="1" height="1" fill="#222222" />
<rect x="23" y="22" width="1" height="1" fill="#222222" />
<rect x="24" y="22" width="1" height="1" fill="#222222" />
<rect x="25" y="22" width="1" height="1" fill="#222222" />
<rect x="26" y="22" width="1" height="1" fill="#222222" />
<rect x="27" y="22" width="1" height="1" fill="#222222" />
<rect x="14" y="23" width="1" height="1" fill="#222222" />
<rect x="15" y="23" width="1" height="1" fill="#222222" />
<rect x="16" y="23" width="1" height="1" fill="#222222" />
<rect x="17" y="23" width="1" height="1" fill="#222222" />
<rect x="18" y="23" width="1" height="1" fill="#222222" />
<rect x="23" y="23" width="1" height="1" fill="#222222" />
<rect x="24" y="23" width="1" height="1" fill="#222222" />
<rect x="25" y="23" width="1" height="1" fill="#222222" />
<rect x="26" y="23" width="1" height="1" fill="#222222" />
<rect x="27" y="23" width="1" height="1" fill="#222222" />
<rect x="14" y="24" width="1" height="1" fill="#222222" />
<rect x="15" y="24" width="1" height="1" fill="#222222" />
<rect x="16" y="24" width="1" height="1" fill="#222222" />
<rect x="17" y="24" width="1" height="1" fill="#222222" />
<rect x="18" y="24" width="1" height="1" fill="#222222" />
<rect x="23" y="24" width="1" height="1" fill="#222222" />
<rect x="24" y="24" width="1" height="1" fill="#222222" />
<rect x="25" y="24" width="1" height="1" fill="#222222" />
<rect x="26" y="24" width="1" height="1" fill="#222222" />
<rect x="27" y="24" width="1" height="1" fill="#222222" />
<rect x="14" y="25" width="1" height="1" fill="#222222" />
<rect x="15" y="25" width="1" height="1" fill="#222222" />
<rect x="16" y="25" width="1" height="1" fill="#222222" />
<rect x="17" y="25" width="1" height="1" fill="#222222" />
<rect x="18" y="25" width="1" height="1" fill="#222222" />
<rect x="23" y="25" width="1" height="1" fill="#222222" />
<rect x="24" y="25" width="1" height="1" fill="#222222" />
<rect x="25" y="25" width="1" height="1" fill="#222222" />
<rect x="26" y="25" width="1" height="1" fill="#222222" />
<rect x="27" y="25" width="1" height="1" fill="#222222" />
<rect x="14" y="26" width="1" height="1" fill="#222222" />
<rect x="15" y="26" width="1" height="1" fill="#222222" />
<rect x="16" y="26" width="1" height="1" fill="#222222" />
<rect x="17" y="26" width="1" height="1" fill="#222222" />
<rect x="18" y="26" width="1" height="1" fill="#222222" />
<rect x="23" y="26" width="1" height="1" fill="#222222" />
<rect x="24" y="26" width="1" height="1" fill="#222222" />
<rect x="25" y="26" width="1" height="1" fill="#222222" />
<rect x="26" y="26" width="1" height="1" fill="#222222" />
<rect x="27" y="26" width="1" height="1" fill="#222222" />
<rect x="14" y="27" width="1" height="1" fill="#222222" />
<rect x="15" y="27" width="1" height="1" fill="#222222" />
<rect x="16" y="27" width="1" height="1" fill="#222222" />
<rect x="17" y="27" width="1" height="1" fill="#222222" />
<rect x="18" y="27" width="1" height="1" fill="#222222" />
<rect x="23" y="27" width="1" height="1" fill="#222222" />
<rect x="24" y="27" width="1" height="1" fill="#222222" />
<rect x="25" y="27" width="1" height="1" fill="#222222" />
<rect x="26" y="27" width="1" height="1" fill="#222222" />
<rect x="27" y="27" width="1" height="1" fill="#222222" />
</svg>