<?xml version="1.0" encoding="UTF-8" ?>
<svg version="1.1" width="48" height="48" xmlns="http://www.w3.org/2000/svg" shape-rendering="crispEdges">
<rect x="14" y="14" width="1" height="1" fill="#222222" />
<rect x="15" y="14" width="1" height="1" fill="#222222" />
<rect x="16" y="14" width="1" height="1" fill="#222222" />
<rect x="17" y="14" width="1" height="1" fill="#222222" />
<rect x="18" y="14" width="1" height="1" fill="#222222" />
<rect x="19" y="14" width="1" height="1" fill="#222222" />
<rect x="20" y="14" width="1" height="1" fill="#222222" />
<rect x="31" y="14" width="1" height="1" fill="#222222" />
<rect x="32" y="14" width="1" height="1" fill="#222222" />
<rect x="15" y="15" width="1" height="1" fill="#222222" />
<rect x="16" y="15" width="1" height="1" fill="#222222" />
<rect x="17" y="15" width="1" height="1" fill="#222222" />
<rect x="18" y="15" width="1" height="1" fill="#222222" />
<rect x="19" y="15" width="1" height="1" fill="#222222" />
<rect x="20" y="15" width="1" height="1" fill="#222222" />
<rect x="30" y="15" width="1" height="1" fill="#222222" />
<rect x="31" y="15" width="1" height="1" fill="#222222" />
<rect x="16" y="16" width="1" height="1" fill="#222222" />
<rect x="20" y="16" width="1" height="1" fill="#222222" />
<rect x="21" y="16" width="1" height="1" fill="#222222" />
<rect x="29" y="16" width="1" height="1" fill="#222222" />
<rect x="30" y="16" width="1" height="1" fill="#222222" />
<rect x="16" y="17" width="1" height="1" fill="#222222" />
<rect x="17" y="17" width="1" height="1" fill="#222222" />
<rect x="21" y="17" width="1" height="1" fill="#222222" />
<rect x="22" y="17" width="1" height="1" fill="#222222" />
<rect x="28" y="17" width="1" height="1" fill="#222222" />
<rect x="29" y="17" width="1" height="1" fill="#222222" />
<rect x="17" y="18" width="1" height="1" fill="#222222" />
<rect x="18" y="18" width="1" height="1" fill="#222222" />
<rect x="21" y="18" width="1" height="1" fill="#222222" />
<rect x="22" y="18" width="1" height="1" fill="#222222" />
<rect x="27" y="18" width="1" height="1" fill="#222222" />
<rect x="28" y="18" width="1" height="1" fill="#222222" />
<rect x="18" y="19" width="1" height="1" fill="#222222" />
<rect x="19" y="19" width="1" height="1" fill="#222222" />
<rect x="22" y="19" width="1" height="1" fill="#222222" />
<rect x="23" y="19" width="1" height="1" fill="#222222" />
<rect x="26" y="19" width="1" height="1" fill="#222222" />
<rect x="27" y="19" width="1" height="1" fill="#222222" />
<rect x="18" y="20" width="1" height="1" fill="#222222" />
<rect x="19" y="20" width="1" height="1" fill="#222222" />
<rect x="23" y="20" width="1" height="1" fill="#222222" />
<rect x="24" y="20" width="1" height="1" fill="#222222" />
<rect x="26" y="20" width="1" height="1" fill="#222222" />
<rect x="27" y="20" width="1" height="1" fill="#222222" />
<rect x="19" y="21" width="1" height="1" fill="#222222" />
<rect x="20" y="21" width="1" height="1" fill="#222222" />
<rect x="24" y="21" width="1" height="1" fill="#222222" />
<rect x="25" y="21" width="1" height="1" fill="#222222" />
<rect x="26" y="21" width="1" height="1" fill="#222222" />
<rect x="20" y="22" width="1" height="1" fill="#222222" />
<rect x="21" y="22" width="1" height="1" fill="#222222" />
<rect x="24" y="22" width="1" height="1" fill="#222222" />
<rect x="25" y="22" width="1" height="1" fill="#222222" />
<rect x="20" y="23" width="1" height="1" fill="#222222" />
<rect x="21" y="23" width="1" height="1" fill="#222222" />
<rect x="25" y="23" width="1" height="1" fill="#222222" />
<rect x="26" y="23" width="1" height="1" fill="#222222" />
<rect x="21" y="24" width="1" height="1" fill="#222222" />
<rect x="22" y="24" width="1" height="1" fill="#222222" />
<rect x="26" y="24" width="1" height="1" fill="#222222" />
<rect x="27" y="24" width="1" height="1" fill="#222222" />
<rect x="21" y="25" width="1" height="1" fill="#222222" />
<rect x="22" y="25" width="1" height="1" fill="#222222" />
<rect x="23" y="25" width="1" height="1" fill="#222222" />
<rect x="26" y="25" width="1" height="1" fill="#222222" />
<rect x="27" y="25" width="1" height="1" fill="#222222" />
<rect x="20" y="26" width="1" height="1" fill="#222222" />
<rect x="21" y="26" width="1" height="1" fill="#222222" />
<rect x="22" y="26" width="1" height="1" fill="#222222" />
<rect x="23" y="26" width="1" height="1" fill="#222222" />
<rect x="24" y="26" width="1" height="1" fill="#222222" />
<rect x="27" y="26" width="1" height="1" fill="#222222" />
<rect x="28" y="26" width="1" height="1" fill="#222222" />
<rect x="19" y="27" width="1" height="1" fill="#222222" />
<rect x="20" y="27" width="1" height="1" fill="#222222" />
<rect x="21" y="27" width="1" height="1" fill="#222222" />
<rect x="23" y="27" width="1" height="1" fill="#222222" />
<rect x="24" y="27" width="1" height="1" fill="#222222" />
<rect x="28" y="27" width="1" height="1" fill="#222222" />
<rect x="29" y="27" width="1" height="1" fill="#222222" />
<rect x="19" y="28" width="1" height="1" fill="#222222" />
<rect x="20" y="28" width="1" height="1" fill="#222222" />
<rect x="24" y="28" width="1" height="1" fill="#222222" />
<rect x="25" y="28" width="1" height="1" fill="#222222" />
<rect x="28" y="28" width="1" height="1" fill="#222222" />
<rect x="29" y="28" width="1" height="1" fill="#222222" />
<rect x="18" y="29" width="1" height="1" fill="#222222" />
<rect x="19" y="29" width="1" height="1" fill="#222222" />
<rect x="25" y="29" width="1" height="1" fill="#222222" />
<rect x="26" y="29" width="1" height="1" fill="#222222" />
<rect x="29" y="29" width="1" height="1" fill="#222222" />
<rect x="30" y="29" width="1" height="1" fill="#222222" />
<rect x="17" y="30" width="1" height="1" fill="#222222" />
<rect x="18" y="30" width="1" height="1" fill="#222222" />
<rect x="25" y="30" width="1" height="1" fill="#222222" />
<rect x="26" y="30" width="1" height="1" fill="#222222" />
<rect x="30" y="30" width="1" height="1" fill="#222222" />
<rect x="31" y="30" width="1" height="1" fill="#222222" />
<rect x="16" y="31" width="1" height="1" fill="#222222" />
<rect x="17" y="31" width="1" height="1" fill="#222222" />
<rect x="26" y="31" width="1" height="1" fill="#222222" />
<rect x="27" y="31" width="1" height="1" fill="#222222" />
<rect x="31" y="31" width="1" height="1" fill="#222222" />
<rect x="32" y="31" width="1" height="1" fill="#222222" />
<rect x="15" y="32" width="1" height="1" fill="#222222" />
<rect x="16" y="32" width="1" height="1" fill="#222222" />
<rect x="27" y="32" width="1" height="1" fill="#222222" />
<rect x="28" y="32" width="1" height="1" fill="#222222" />
<rect x="29" y="32" width="1" height="1" fill="#222222" />
<rect x="30" y="32" width="1" height="1" fill="#222222" />
<rect x="31" y="32" width="1" height="1" fill="#222222" />
<rect x="32" y="32" width="1" height="1" fill="#222222" />
<rect x="14" y="33" width="1" height="1" fill="#222222" />
<rect x="15" y="33" width="1" height="1" fill="#222222" />
<rect x="27" y="33" width="1" height="1" fill="#222222" />
<rect x="28" y="33" width="1" height="1" fill="#222222" />
<rect x="29" y="33" width="1" height="1" fill="#222222" />
<rect x="30" y="33" width="1" height="1" fill="#222222" />
<rect x="31" y="33" width="1" height="1" fill="#222222" />
<rect x="32" y="33" width="1" height="1" fill="#222222" />
<rect x="33" y="33" width="1" height="1" fill="#222222" />
</svg>